<svg width="437" height="441" viewBox="0 0 437 441" fill="none" xmlns="http://www.w3.org/2000/svg">
<g clip-path="url(#clip0_0_4)">
<path d="M354 355.9C266.6 416.9 113 471 52.3999 421.9C-30.5001 354.9 -0.600098 263.3 53.8999 113.1C94.4999 1.40004 120.3 -50.9 327.4 70.7C472.3 155.7 463.3 279.7 354 355.9Z" fill="url(#paint0_linear_0_4)"/>
<path d="M157.38 300.849H142.771V326H117.702V300.849H65.9053V283.002L119.113 204.643H142.771V280.927H157.38V300.849ZM117.702 280.927V260.341C117.702 258.404 117.73 256.107 117.785 253.451C117.896 250.795 118.007 248.139 118.117 245.482C118.228 242.826 118.339 240.474 118.449 238.427C118.615 236.324 118.726 234.857 118.781 234.027H118.117C117.066 236.296 115.959 238.51 114.797 240.668C113.635 242.771 112.279 244.984 110.729 247.309L88.4834 280.927H117.702ZM251.262 265.321C251.262 275.116 250.487 283.86 248.938 291.552C247.443 299.244 245.008 305.774 241.633 311.142C238.312 316.509 233.941 320.604 228.518 323.427C223.094 326.249 216.509 327.66 208.762 327.66C199.022 327.66 191.026 325.198 184.772 320.272C178.519 315.292 173.898 308.153 170.91 298.856C167.922 289.504 166.428 278.326 166.428 265.321C166.428 252.206 167.784 241 170.495 231.703C173.262 222.351 177.744 215.185 183.942 210.204C190.14 205.224 198.413 202.733 208.762 202.733C218.446 202.733 226.415 205.224 232.668 210.204C238.977 215.129 243.653 222.268 246.696 231.62C249.74 240.917 251.262 252.151 251.262 265.321ZM191.911 265.321C191.911 274.563 192.409 282.283 193.405 288.48C194.457 294.623 196.2 299.244 198.635 302.343C201.07 305.442 204.445 306.991 208.762 306.991C213.023 306.991 216.371 305.469 218.806 302.426C221.296 299.327 223.067 294.706 224.118 288.563C225.17 282.366 225.695 274.618 225.695 265.321C225.695 256.08 225.17 248.36 224.118 242.162C223.067 235.964 221.296 231.316 218.806 228.217C216.371 225.062 213.023 223.485 208.762 223.485C204.445 223.485 201.07 225.062 198.635 228.217C196.2 231.316 194.457 235.964 193.405 242.162C192.409 248.36 191.911 256.08 191.911 265.321ZM351.95 300.849H337.341V326H312.272V300.849H260.476V283.002L313.684 204.643H337.341V280.927H351.95V300.849ZM312.272 280.927V260.341C312.272 258.404 312.3 256.107 312.355 253.451C312.466 250.795 312.577 248.139 312.688 245.482C312.798 242.826 312.909 240.474 313.02 238.427C313.186 236.324 313.296 234.857 313.352 234.027H312.688C311.636 236.296 310.529 238.51 309.367 240.668C308.205 242.771 306.849 244.984 305.3 247.309L283.054 280.927H312.272Z" fill="white"/>
</g>
<defs>
<linearGradient id="paint0_linear_0_4" x1="290.211" y1="-582.222" x2="-215.651" y2="21.3226" gradientUnits="userSpaceOnUse">
<stop offset="0.569792" stop-color="#00BCD4"/>
<stop offset="1" stop-color="#D39943" stop-opacity="0.33"/>
</linearGradient>
<clipPath id="clip0_0_4">
<rect width="437" height="441" fill="white"/>
</clipPath>
</defs>
</svg>
