<svg width="254" height="48" viewBox="0 0 254 48" fill="none" xmlns="http://www.w3.org/2000/svg">
<path d="M0.859375 47.1719V10.8438C0.859375 7.26953 3.07617 4.56445 7.50977 2.72852C9.99023 1.69336 12.7051 1.17578 15.6543 1.17578C18.6035 1.17578 21.3184 1.69336 23.7988 2.72852C28.2324 4.56445 30.4492 7.26953 30.4492 10.8438C30.4492 10.8438 30.4492 22.0742 30.4492 44.5352L24.8828 47.1719H24.5898V26.5469H6.71875V44.5352L1.15234 47.1719H0.859375ZM6.71875 21.2148H24.5898V10.8438C24.5898 9.49609 23.4082 8.35352 21.0449 7.41602C19.4043 6.77148 17.6074 6.44922 15.6543 6.44922C13.7012 6.44922 11.9043 6.77148 10.2637 7.41602C7.90039 8.35352 6.71875 9.49609 6.71875 10.8438V21.2148ZM42.168 47.1719V3.22656L47.7344 0.589844H48.0273V44.5352L42.4609 47.1719H42.168Z" fill="#1BE9DD"/>
<path d="M107.354 34.6035C107.354 37.1426 106.719 39.3105 105.449 41.1074C104.199 42.8848 102.441 44.2422 100.176 45.1797C97.9102 46.1172 95.2441 46.5859 92.1777 46.5859C90.5566 46.5859 89.0234 46.5078 87.5781 46.3516C86.1328 46.1953 84.8047 45.9707 83.5938 45.6777C82.3828 45.3848 81.3184 45.0234 80.4004 44.5938V39.8184C81.8652 40.4238 83.6523 40.9902 85.7617 41.5176C87.8711 42.0254 90.0781 42.2793 92.3828 42.2793C94.5312 42.2793 96.3477 41.9961 97.832 41.4297C99.3164 40.8438 100.439 40.0137 101.201 38.9395C101.982 37.8457 102.373 36.5371 102.373 35.0137C102.373 33.5488 102.051 32.3281 101.406 31.3516C100.762 30.3555 99.6875 29.457 98.1836 28.6562C96.6992 27.8359 94.668 26.9668 92.0898 26.0488C90.2734 25.4043 88.6719 24.7012 87.2852 23.9395C85.8984 23.1582 84.7363 22.2793 83.7988 21.3027C82.8613 20.3262 82.1484 19.1934 81.6602 17.9043C81.1914 16.6152 80.957 15.1406 80.957 13.4805C80.957 11.1953 81.5332 9.24219 82.6855 7.62109C83.8574 5.98047 85.4688 4.73047 87.5195 3.87109C89.5898 2.99219 91.9629 2.55273 94.6387 2.55273C96.9238 2.55273 99.0332 2.76758 100.967 3.19727C102.92 3.62695 104.707 4.20312 106.328 4.92578L104.775 9.20312C103.232 8.55859 101.592 8.02148 99.8535 7.5918C98.1348 7.16211 96.3574 6.94727 94.5215 6.94727C92.6855 6.94727 91.1328 7.2207 89.8633 7.76758C88.6133 8.29492 87.6562 9.04688 86.9922 10.0234C86.3281 11 85.9961 12.1621 85.9961 13.5098C85.9961 15.0137 86.3086 16.2637 86.9336 17.2598C87.5781 18.2559 88.5938 19.1445 89.9805 19.9258C91.3867 20.6875 93.2422 21.4883 95.5469 22.3281C98.0664 23.2461 100.205 24.2227 101.963 25.2578C103.721 26.2734 105.059 27.5234 105.977 29.0078C106.895 30.4727 107.354 32.3379 107.354 34.6035ZM125.752 42.6016C126.553 42.6016 127.373 42.5332 128.213 42.3965C129.053 42.2598 129.736 42.0938 130.264 41.8984V45.6777C129.697 45.9316 128.906 46.1465 127.891 46.3223C126.895 46.498 125.918 46.5859 124.961 46.5859C123.262 46.5859 121.719 46.293 120.332 45.707C118.945 45.1016 117.832 44.0859 116.992 42.6602C116.172 41.2344 115.762 39.2617 115.762 36.7422V17.6992H111.191V15.3262L115.791 13.4219L117.725 6.44922H120.654V13.8906H130.059V17.6992H120.654V36.5957C120.654 38.6074 121.113 40.1113 122.031 41.1074C122.969 42.1035 124.209 42.6016 125.752 42.6016ZM163.281 13.8906V46H159.297L158.594 41.4883H158.33C157.666 42.6016 156.807 43.5391 155.752 44.3008C154.697 45.0625 153.506 45.6289 152.178 46C150.869 46.3906 149.473 46.5859 147.988 46.5859C145.449 46.5859 143.32 46.1758 141.602 45.3555C139.883 44.5352 138.584 43.2656 137.705 41.5469C136.846 39.8281 136.416 37.6211 136.416 34.9258V13.8906H141.338V34.5742C141.338 37.25 141.943 39.252 143.154 40.5801C144.365 41.8887 146.211 42.543 148.691 42.543C151.074 42.543 152.969 42.0938 154.375 41.1953C155.801 40.2969 156.826 38.9785 157.451 37.2402C158.076 35.4824 158.389 33.334 158.389 30.7949V13.8906H163.281ZM184.99 46.5859C180.928 46.5859 177.705 45.1992 175.322 42.4258C172.959 39.6523 171.777 35.5312 171.777 30.0625C171.777 24.5352 172.988 20.3652 175.41 17.5527C177.832 14.7207 181.055 13.3047 185.078 13.3047C186.777 13.3047 188.262 13.5293 189.531 13.9785C190.801 14.4277 191.895 15.0332 192.812 15.7949C193.73 16.5371 194.502 17.3867 195.127 18.3438H195.479C195.4 17.7383 195.322 16.9082 195.244 15.8535C195.166 14.7988 195.127 13.9395 195.127 13.2754V0.414062H199.99V46H196.064L195.332 41.4297H195.127C194.521 42.3867 193.75 43.2559 192.812 44.0371C191.895 44.8184 190.791 45.4434 189.502 45.9121C188.232 46.3613 186.729 46.5859 184.99 46.5859ZM185.752 42.543C189.189 42.543 191.621 41.5664 193.047 39.6133C194.473 37.6602 195.186 34.7598 195.186 30.9121V30.0332C195.186 25.9512 194.502 22.8164 193.135 20.6289C191.787 18.4414 189.326 17.3477 185.752 17.3477C182.764 17.3477 180.527 18.5 179.043 20.8047C177.559 23.0898 176.816 26.2148 176.816 30.1797C176.816 34.125 177.549 37.1719 179.014 39.3203C180.498 41.4688 182.744 42.543 185.752 42.543ZM215.166 13.8906V46H210.303V13.8906H215.166ZM212.793 1.87891C213.594 1.87891 214.277 2.14258 214.844 2.66992C215.43 3.17773 215.723 3.97852 215.723 5.07227C215.723 6.14648 215.43 6.94727 214.844 7.47461C214.277 8.00195 213.594 8.26562 212.793 8.26562C211.953 8.26562 211.25 8.00195 210.684 7.47461C210.137 6.94727 209.863 6.14648 209.863 5.07227C209.863 3.97852 210.137 3.17773 210.684 2.66992C211.25 2.14258 211.953 1.87891 212.793 1.87891ZM253.164 29.8867C253.164 32.5234 252.822 34.877 252.139 36.9473C251.455 39.0176 250.469 40.7656 249.18 42.1914C247.891 43.6172 246.328 44.7109 244.492 45.4727C242.676 46.2148 240.615 46.5859 238.311 46.5859C236.162 46.5859 234.189 46.2148 232.393 45.4727C230.615 44.7109 229.072 43.6172 227.764 42.1914C226.475 40.7656 225.469 39.0176 224.746 36.9473C224.043 34.877 223.691 32.5234 223.691 29.8867C223.691 26.3711 224.287 23.3828 225.479 20.9219C226.67 18.4414 228.369 16.5566 230.576 15.2676C232.803 13.959 235.449 13.3047 238.516 13.3047C241.445 13.3047 244.004 13.959 246.191 15.2676C248.398 16.5762 250.107 18.4707 251.318 20.9512C252.549 23.4121 253.164 26.3906 253.164 29.8867ZM228.73 29.8867C228.73 32.4648 229.072 34.7012 229.756 36.5957C230.439 38.4902 231.494 39.9551 232.92 40.9902C234.346 42.0254 236.182 42.543 238.428 42.543C240.654 42.543 242.48 42.0254 243.906 40.9902C245.352 39.9551 246.416 38.4902 247.1 36.5957C247.783 34.7012 248.125 32.4648 248.125 29.8867C248.125 27.3281 247.783 25.1211 247.1 23.2656C246.416 21.3906 245.361 19.9453 243.936 18.9297C242.51 17.9141 240.664 17.4062 238.398 17.4062C235.059 17.4062 232.607 18.5098 231.045 20.7168C229.502 22.9238 228.73 25.9805 228.73 29.8867Z" fill="black"/>
</svg>
