<svg width="2544" height="1042" viewBox="0 0 2544 1042" fill="none" xmlns="http://www.w3.org/2000/svg">
<path d="M661.511 196.114C1798.56 -28.8485 2358.53 -16.4232 2521.89 21.914C2535.39 25.0801 2543.97 37.3106 2543.93 51.1685C2543.15 303.125 2541.79 761.916 2541.52 902.831C2541.49 921.326 2525.59 935.878 2507.13 934.754C1994.48 903.549 1872.77 950.217 1709.07 989.126C1337.14 1116.19 191.863 981.509 16.1385 917.687C5.54978 913.841 0.000374225 903.664 0.000371454 892.398L0.000328117 743.677C0.000257757 518.075 0.000175945 255.755 0.000381447 129C0.000418395 106.21 474.068 240.024 661.511 196.114Z" fill="url(#paint0_linear_288_49)"/>
<defs>
<linearGradient id="paint0_linear_288_49" x1="1351.32" y1="47.6127" x2="1337.97" y2="1047.09" gradientUnits="userSpaceOnUse">
<stop stop-color="#6DDFBC"/>
<stop offset="1" stop-color="#F8E5BF"/>
</linearGradient>
</defs>
</svg>
