<svg width="56" height="53" viewBox="0 0 56 53" fill="none" xmlns="http://www.w3.org/2000/svg">
<path fill-rule="evenodd" clip-rule="evenodd" d="M20.2298 42.0643L18.7831 43.4949L28.0748 52.7059L37.3666 43.4949L35.9198 42.0643L29.0975 48.8157V18.4345H27.0521V48.8157L20.2298 42.0643Z" fill="black" fill-opacity="0.54"/>
<path fill-rule="evenodd" clip-rule="evenodd" d="M45.9225 14.858C45.9225 14.7075 45.9474 14.5694 45.9474 14.4188C45.9474 6.4502 39.3497 0 31.3799 0C25.6303 0 20.6788 3.36314 18.359 8.20706C17.3488 7.7051 16.2263 7.41647 15.0165 7.41647C11.3247 7.41647 8.26904 10.3404 7.67037 13.8541C3.28017 15.36 0.112244 19.3004 0.112244 24.1945C0.112244 30.3561 5.11358 35.3882 11.2873 35.3882H22.6993V33.3804H11.3871C6.28596 33.3804 2.13273 29.2141 2.13273 24.1318C2.13273 20.1914 4.65211 16.9161 8.39376 15.6361L9.44142 15.2847L9.6285 14.1929C10.0775 11.52 12.3848 9.32392 15.1038 9.32392C15.9644 9.32392 16.8125 9.52471 17.5857 9.91373L19.2695 10.7545L20.0802 9.04784C22.1506 4.73098 26.5782 1.9451 31.355 1.9451C38.2521 1.9451 43.9394 7.31608 43.9394 14.1929C43.9394 15.8369 43.9145 16.7153 43.9145 16.7153L45.8102 16.7278C50.3875 16.7906 53.992 20.4925 53.992 25.0604C53.992 29.6157 50.2753 33.3553 45.698 33.3804L45.2989 33.3929H33.1759V35.4008H45.7728C51.3853 35.4008 55.9875 30.7325 55.9875 25.098C55.9875 19.451 51.5724 14.8706 45.9225 14.858Z" fill="black" fill-opacity="0.54"/>
</svg>
