<svg width="1489" height="1562" viewBox="0 0 1489 1562" fill="none" xmlns="http://www.w3.org/2000/svg">
<path opacity="0.563035" fill-rule="evenodd" clip-rule="evenodd" d="M0.00543604 -15.2699H1679.52V1439.67C1679.52 1439.67 1758 1734 1380 1317C1002 900 584.368 1253.45 367.716 1065.77C151.065 878.085 838.45 165.364 593 31.0001C347.55 -103.364 0.00543604 -15.2699 0.00543604 -15.2699Z" fill="#4FFFE0"/>
<path fill-rule="evenodd" clip-rule="evenodd" d="M122.005 -18.2769H1570.97L1571 1364C1571 1364 1689 1641 1338 1219C987 797 626.154 1062.95 439.241 903.001C252.329 743.055 837.758 131.507 626 17.0001C414.242 -97.507 122.005 -18.2769 122.005 -18.2769Z" fill="url(#paint0_linear_226_49)"/>
<g opacity="0.240676">
<ellipse cx="1134.5" cy="560.5" rx="24.5" ry="24" stroke="white" stroke-width="8"/>
<ellipse cx="904.5" cy="320.5" rx="24.5" ry="24" stroke="white" stroke-width="8"/>
<ellipse cx="1419.5" cy="55.1941" rx="39.5" ry="38.6939" stroke="white" stroke-width="8"/>
<ellipse cx="774.5" cy="590.704" rx="14.5" ry="14.2041" stroke="white" stroke-width="8"/>
<rect x="1192.3" y="306.428" width="72" height="72" transform="rotate(-23 1192.3 306.428)" stroke="white" stroke-width="8"/>
<rect x="1166.96" y="889.375" width="42" height="42" transform="rotate(-23 1166.96 889.375)" stroke="white" stroke-width="8"/>
<rect x="910.076" y="714.673" width="22" height="22" transform="rotate(-23 910.076 714.673)" stroke="white" stroke-width="8"/>
<path d="M637.863 429.755L635.275 420.095L637.1 419.606L639.688 429.266L649.303 426.689L649.792 428.514L640.177 431.091L642.754 440.706L640.929 441.195L638.352 431.58L628.693 434.168L628.204 432.343L637.863 429.755Z" fill="white"/>
<path d="M1187.86 809.755L1185.28 800.095L1187.1 799.606L1189.69 809.266L1199.3 806.689L1199.79 808.514L1190.18 811.091L1192.75 820.706L1190.93 821.195L1188.35 811.58L1178.69 814.168L1178.2 812.343L1187.86 809.755Z" fill="white"/>
<path d="M916.83 529.158L911.872 510.654L915.368 509.718L920.326 528.221L938.744 523.286L939.681 526.782L921.263 531.717L926.198 550.135L922.702 551.072L917.767 532.654L899.263 537.612L898.326 534.116L916.83 529.158Z" fill="white"/>
<path d="M731.313 43.8596L725.17 20.9339L729.502 19.7733L735.645 42.6989L758.465 36.5843L759.625 40.9159L736.805 47.0305L742.92 69.8505L738.588 71.0111L732.474 48.1911L709.548 54.3341L708.387 50.0025L731.313 43.8596Z" fill="white"/>
<path d="M1474.76 517.964L1465.07 481.773L1471.9 479.94L1481.6 516.132L1517.63 506.479L1519.46 513.317L1483.43 522.97L1493.09 558.995L1486.25 560.828L1476.6 524.803L1440.4 534.5L1438.57 527.662L1474.76 517.964Z" fill="white"/>
</g>
<ellipse opacity="0.203246" cx="649.5" cy="1316.62" rx="98.5" ry="98" stroke="#00BCD4" stroke-width="21"/>
<defs>
<linearGradient id="paint0_linear_226_49" x1="1607.68" y1="-2150.62" x2="-455.647" y2="-187.473" gradientUnits="userSpaceOnUse">
<stop offset="0.604167" stop-color="#1BE9DD"/>
<stop offset="0.9999" stop-color="#ECA21B" stop-opacity="0.266667"/>
<stop offset="1" stop-color="#FF9C09" stop-opacity="0.2"/>
</linearGradient>
</defs>
</svg>
