<svg width="200" height="200" viewBox="0 0 200 200" fill="none" xmlns="http://www.w3.org/2000/svg">
<rect width="200" height="200" rx="98" fill="url(#paint0_linear_33_596)"/>
<rect x="64.2107" y="57.1046" width="19.7116" height="101" transform="rotate(18 64.2107 57.1046)" fill="white"/>
<rect x="72.9208" y="57.661" width="18.9989" height="101" transform="rotate(-22 72.9208 57.661)" fill="white"/>
<rect x="60.5625" y="110.209" width="41" height="10.6269" transform="rotate(-10.5 60.5625 110.209)" fill="white"/>
<rect x="111.016" y="65.3291" width="19" height="89.4163" transform="rotate(-26 111.016 65.3291)" fill="white"/>
<path d="M107.243 37.3719C106.891 36.2314 108.473 35.5443 109.066 36.5798L111.175 40.2591C111.511 40.8465 112.322 40.9366 112.78 40.4374L115.665 37.2886C116.468 36.4122 117.857 37.4187 117.274 38.4547L115.122 42.2774C114.797 42.8549 115.113 43.5831 115.757 43.7396L120.02 44.7756C121.175 45.0564 120.963 46.7584 119.774 46.7473L115.504 46.7074C114.827 46.7011 114.339 47.3553 114.539 48.0022L115.789 52.0544C116.141 53.1949 114.56 53.882 113.966 52.8465L111.857 49.1672C111.521 48.5798 110.71 48.4898 110.252 48.9889L107.367 52.1377C106.564 53.0142 105.176 52.0076 105.759 50.9717L107.91 47.1489C108.235 46.5715 107.919 45.8433 107.275 45.6868L103.012 44.6507C101.857 44.37 102.069 42.668 103.258 42.6791L107.528 42.7189C108.205 42.7252 108.693 42.0711 108.493 41.4241L107.243 37.3719Z" fill="white"/>
<path d="M64 54.411L88.7069 49.7443C89.1412 49.6622 89.3583 49.6212 89.5505 49.6602C89.7592 49.7026 89.9489 49.8106 90.092 49.9683C90.2237 50.1135 90.2994 50.3211 90.4508 50.7364L93.5 59.0998L76.5 65.5L64 61L64 54.411Z" fill="white"/>
<defs>
<linearGradient id="paint0_linear_33_596" x1="3.48837" y1="6.26398" x2="155.62" y2="179.924" gradientUnits="userSpaceOnUse">
<stop stop-color="#1BE9DD"/>
<stop offset="1" stop-color="#FF9C09" stop-opacity="0.2"/>
</linearGradient>
</defs>
</svg>
