<svg width="2560" height="3193" viewBox="0 0 2560 3193" fill="none" xmlns="http://www.w3.org/2000/svg">
<path opacity="0.05" fill-rule="evenodd" clip-rule="evenodd" d="M3045.9 0.272461C3045.9 0.272461 2164.64 669.384 1528.12 546.692C891.606 424 694.571 757.269 273.776 764.547C-147.019 771.826 -94.1093 1397.68 -94.1093 1397.68L-256.393 2737.01C-256.393 2737.01 -263.037 2458.86 271.608 2718.49C806.253 2978.13 1420.74 2656.29 1879.35 2648.36C2337.95 2640.42 2803.82 2906.59 2803.82 2906.59L3045.9 0.272461Z" fill="#2CE6D5"/>
<path opacity="0.1" fill-rule="evenodd" clip-rule="evenodd" d="M2639.23 22.4302C2639.23 22.4302 1923.86 637.889 1324.92 514.547C725.992 391.204 399.552 749.81 3.69686 756.657C-392.158 763.504 -200.303 1363.86 -200.303 1363.86L-354.077 3193C-354.077 3193 -282.031 2718.29 221.207 2978.47C724.445 3238.65 1211.73 2748.24 1643.15 2740.78C2074.58 2733.32 2527.5 2875.71 2527.5 2875.71L2639.23 22.4302Z" fill="#D1C4E9"/>
</svg>
